<!-- 128x128 icon -->
<svg viewBox="0 0 128 128">
  <circle cx="64" cy="64" r="64" fill="#24292e"/>
  <path d="M64 24 L96 36 L96 68 C96 84 82 96 64 104 C46 96 32 84 32 68 L32 36 Z" 
        fill="none" stroke="#7ee787" stroke-width="6"/>
  <rect x="52" y="56" width="24" height="20" rx="4" fill="#7ee787"/>
  <path d="M60 56 L60 52 Q60 48, 64 48 Q68 48, 68 52 L68 56" 
        fill="none" stroke="#7ee787" stroke-width="3" stroke-linecap="round"/>
  <path d="M58 60 L70 60 L70 72 L58 72 Z" fill="#24292e" stroke="#24292e" stroke-width="1"/>
  <path d="M68 60 L68 62 L70 62" fill="none" stroke="#24292e" stroke-width="1"/>
  <line x1="60" y1="63" x2="68" y2="63" stroke="#7ee787" stroke-width="1"/>
  <line x1="60" y1="65" x2="67" y2="65" stroke="#7ee787" stroke-width="1"/>
  <line x1="60" y1="67" x2="68" y2="67" stroke="#7ee787" stroke-width="1"/>
  <line x1="60" y1="69" x2="64" y2="69" stroke="#7ee787" stroke-width="1"/>
</svg>
